<?xml version="1.0" encoding="UTF-8" standalone="yes"?>
<svg xmlns="http://www.w3.org/2000/svg" xmlns:xlink="http://www.w3.org/1999/xlink" width="64.000px" height="64.000px" version="1.1" viewBox="-112.621 732.699 24.381 24.381">
  <!--
	Exported with Concepts: Smarter Sketching
	Version: 2024.06.5 on Android 13
	https://concepts.app/
	-->
  <title>Drawing</title>
  <desc>Drawing exported from Concepts: Smarter Sketching</desc>
  <defs></defs>
  <g id="Pen" opacity="1.000">
    <circle id="STROKE_8264818e-a092-4235-bb22-8f30d0eb9e2a" opacity="1.000" fill="#000000" stroke="#000000" stroke-width="0.1" stroke-opacity="1.000" fill-opacity="1.000" cx="377.973" cy="-125.223" r="4.000"></circle>
    <path id="STROKE_1095d4aa-9911-4d45-9882-824a78137403" opacity="1.000" fill="none" stroke="#5a6edc" stroke-width="1.543" stroke-opacity="1.000" stroke-linecap="round" stroke-linejoin="round" d="M -100.936 754.360 Q -101.007 754.353 -101.434 754.238 Q -101.861 754.124 -102.301 753.935 Q -102.740 753.746 -103.261 753.454 Q -103.783 753.161 -104.419 752.743 Q -105.055 752.326 -105.450 752.027 Q -105.844 751.727 -106.174 751.426 Q -106.503 751.125 -106.847 750.725 Q -107.191 750.326 -107.403 749.969 Q -107.615 749.612 -107.708 749.323 Q -107.801 749.035 -107.806 748.826 Q -107.811 748.616 -107.749 748.436 Q -107.688 748.255 -107.535 748.121 Q -107.382 747.987 -107.234 747.925 Q -107.085 747.863 -106.761 747.824 Q -106.437 747.785 -105.767 747.905 Q -105.097 748.025 -104.655 748.166 Q -104.213 748.306 -103.803 748.452 Q -103.392 748.598 -102.710 748.869 Q -102.028 749.139 -101.466 749.369 Q -100.903 749.598 -99.978 749.944 Q -99.053 750.290 -97.928 750.688 Q -96.803 751.087 -96.247 751.286 Q -95.690 751.486 -95.417 751.581 Q -95.144 751.676 -94.590 751.879 Q -94.036 752.083 -93.538 752.289 Q -93.040 752.496 -92.749 752.613 Q -92.458 752.731 -92.056 752.842 L -91.906 752.886 "></path>
    <path id="STROKE_9469ace4-e7f4-4c86-93a8-1aa9e805385d" opacity="1.000" fill="none" stroke="#5a6edc" stroke-width="1.543" stroke-opacity="1.000" stroke-linecap="round" stroke-linejoin="round" d="M -103.234 748.503 Q -103.354 748.452 -103.783 748.258 Q -104.212 748.063 -104.774 747.664 Q -105.335 747.266 -105.712 746.923 Q -106.090 746.580 -106.547 746.091 Q -107.005 745.602 -107.304 745.196 Q -107.602 744.789 -107.713 744.547 Q -107.823 744.304 -107.848 744.165 Q -107.873 744.026 -107.852 743.877 Q -107.830 743.728 -107.682 743.554 Q -107.534 743.379 -107.245 743.235 Q -106.955 743.092 -106.444 743.006 Q -105.933 742.920 -105.259 742.933 Q -104.585 742.946 -103.488 743.130 Q -102.391 743.315 -100.436 743.845 Q -98.480 744.375 -97.507 744.653 Q -96.534 744.931 -96.071 745.067 Q -95.608 745.204 -95.153 745.336 Q -94.699 745.468 -93.513 745.825 "></path>
    <path id="STROKE_f2210061-7a23-407a-9741-892d598118a5" opacity="1.000" fill="none" stroke="#5a6edc" stroke-width="1.543" stroke-opacity="1.000" stroke-linecap="round" stroke-linejoin="round" d="M -103.199 743.004 Q -103.319 742.954 -103.748 742.759 Q -104.178 742.565 -104.739 742.166 Q -105.300 741.767 -105.678 741.424 Q -106.055 741.081 -106.513 740.592 Q -106.970 740.104 -107.269 739.697 Q -107.568 739.291 -107.678 739.048 Q -107.789 738.805 -107.814 738.666 Q -107.839 738.527 -107.817 738.378 Q -107.795 738.229 -107.648 738.055 Q -107.500 737.881 -107.210 737.737 Q -106.921 737.593 -106.410 737.507 Q -105.899 737.421 -105.225 737.435 Q -104.551 737.448 -103.454 737.632 Q -102.357 737.816 -100.401 738.346 Q -98.445 738.876 -97.472 739.154 Q -96.500 739.432 -96.036 739.569 Q -95.573 739.706 -95.119 739.838 Q -94.664 739.969 -93.479 740.327 "></path>
  </g>
</svg>